<svg width="48" height="48" viewBox="0 0 48 48" fill="none" xmlns="http://www.w3.org/2000/svg">
  <!-- Background circle with gradient -->
  <defs>
    <linearGradient id="bgGradient" x1="0%" y1="0%" x2="100%" y2="100%">
      <stop offset="0%" style="stop-color:#FFD700;stop-opacity:1" />
      <stop offset="100%" style="stop-color:#FFA500;stop-opacity:1" />
    </linearGradient>
    <linearGradient id="hatGradient" x1="0%" y1="0%" x2="100%" y2="100%">
      <stop offset="0%" style="stop-color:#2C2C2C;stop-opacity:1" />
      <stop offset="100%" style="stop-color:#1A1A1A;stop-opacity:1" />
    </linearGradient>
    <linearGradient id="wandGradient" x1="0%" y1="0%" x2="100%" y2="100%">
      <stop offset="0%" style="stop-color:#FFD700;stop-opacity:1" />
      <stop offset="100%" style="stop-color:#FFA500;stop-opacity:1" />
    </linearGradient>
    <filter id="glow">
      <feGaussianBlur stdDeviation="2" result="coloredBlur"/>
      <feMerge> 
        <feMergeNode in="coloredBlur"/>
        <feMergeNode in="SourceGraphic"/>
      </feMerge>
    </filter>
  </defs>
  <circle cx="24" cy="24" r="22" fill="url(#bgGradient)" stroke="#FFD700" stroke-width="2"/>
  <path d="M12 20 L24 8 L36 20 L32 20 L32 28 C32 30.2091 30.2091 32 28 32 L20 32 C17.7909 32 16 30.2091 16 28 L16 20 Z" fill="url(#hatGradient)"/>
  <ellipse cx="24" cy="20" rx="12" ry="2" fill="url(#hatGradient)"/>
  <path d="M24 12 L25.5 15 L29 15 L26.25 17.5 L27.75 21 L24 18.5 L20.25 21 L21.75 17.5 L19 15 L22.5 15 Z" fill="#FFD700" filter="url(#glow)"/>
  <line x1="28" y1="16" x2="38" y2="6" stroke="url(#wandGradient)" stroke-width="2" stroke-linecap="round"/>
  <circle cx="38" cy="6" r="3" fill="#FFD700" filter="url(#glow)"/>
  <circle cx="18" cy="18" r="1" fill="#FFD700" opacity="0.8">
    <animate attributeName="opacity" values="0.8;0.2;0.8" dur="2s" repeatCount="indefinite"/>
  </circle>
  <circle cx="30" cy="26" r="1" fill="#FFD700" opacity="0.6">
    <animate attributeName="opacity" values="0.6;0.1;0.6" dur="1.5s" repeatCount="indefinite"/>
  </circle>
  <circle cx="22" cy="34" r="1" fill="#FFD700" opacity="0.7">
    <animate attributeName="opacity" values="0.7;0.3;0.7" dur="2.5s" repeatCount="indefinite"/>
  </circle>
  <path d="M16 16 L20 20" stroke="#FFD700" stroke-width="1" opacity="0.6"/>
  <path d="M32 24 L28 28" stroke="#FFD700" stroke-width="1" opacity="0.6"/>
  <path d="M20 20 L28 28" stroke="#FFD700" stroke-width="1" opacity="0.4"/>
  <circle cx="32" cy="10" r="0.5" fill="#FFD700">
    <animate attributeName="r" values="0.5;1;0.5" dur="1s" repeatCount="indefinite"/>
  </circle>
  <circle cx="34" cy="8" r="0.5" fill="#FFD700">
    <animate attributeName="r" values="0.5;1;0.5" dur="1.2s" repeatCount="indefinite"/>
  </circle>
</svg> 